<?xml version="1.0" standalone="no"?>
<!DOCTYPE svg PUBLIC "-//W3C//DTD SVG 20010904//EN"
 "http://www.w3.org/TR/2001/REC-SVG-20010904/DTD/svg10.dtd">
<svg version="1.0" xmlns="http://www.w3.org/2000/svg"
 width="800.000000pt" height="600.000000pt" viewBox="0 0 800.000000 600.000000"
 preserveAspectRatio="xMidYMid meet">

<g transform="translate(0.000000,600.000000) scale(0.100000,-0.100000)"
fill="#000000" stroke="none">
<path d="M3148 4568 c-140 -153 -285 -405 -428 -748 -55 -133 -170 -447 -195
-535 -10 -33 -28 -84 -41 -114 -57 -127 -446 -561 -585 -651 -103 -67 -170
-73 -200 -18 -34 61 3 284 92 552 27 82 49 156 49 166 0 25 -42 41 -71 26 -94
-46 -227 -620 -178 -767 29 -85 107 -137 189 -126 67 9 161 60 255 139 98 82
251 238 330 335 27 34 50 61 52 60 1 -2 -9 -62 -22 -134 -36 -192 -47 -301
-48 -463 -1 -114 3 -154 16 -188 26 -67 54 -100 94 -111 31 -9 44 -7 82 12 92
45 153 119 560 679 51 70 96 130 100 132 4 3 -3 -54 -16 -126 -27 -157 -47
-412 -38 -491 13 -116 53 -190 113 -206 44 -13 87 7 166 72 42 35 280 343 401
519 41 59 55 70 55 43 0 -9 11 -27 25 -40 30 -31 72 -32 128 -4 41 21 268 242
393 382 65 72 90 85 81 40 -4 -16 -14 -62 -22 -103 -9 -41 -17 -115 -18 -163
l-2 -89 34 -30 c31 -28 38 -30 84 -25 98 12 222 85 406 241 52 44 91 71 87 60
-37 -93 -108 -329 -125 -411 -29 -140 -28 -187 4 -219 53 -53 101 -8 200 185
82 160 158 286 244 401 76 102 230 260 253 260 26 0 33 -26 52 -187 19 -166
42 -239 92 -282 41 -37 71 -46 125 -37 71 11 124 45 249 157 68 60 125 107
127 105 2 -2 -5 -57 -17 -123 -24 -143 -25 -193 -5 -260 18 -61 76 -119 129
-129 115 -21 252 62 479 291 l112 113 -3 -79 c-4 -97 15 -163 61 -207 141
-136 358 -34 414 194 14 54 14 78 5 137 -7 45 -7 76 -1 83 5 6 48 16 95 23 53
7 152 35 257 71 94 33 173 60 174 60 2 0 3 23 3 51 l0 52 -37 -7 c-21 -3 -100
-28 -175 -55 -166 -60 -220 -71 -358 -71 -91 0 -109 -3 -123 -18 -23 -25 -22
-29 24 -124 36 -75 40 -89 36 -140 -5 -63 -46 -148 -85 -179 -33 -26 -86 -34
-123 -18 -88 36 -78 237 22 430 55 107 98 154 162 177 58 22 72 49 41 83 -22
25 -55 24 -106 -2 -60 -31 -128 -98 -246 -244 -58 -71 -176 -200 -262 -286
-133 -133 -168 -162 -231 -193 -58 -29 -81 -35 -106 -30 -44 9 -54 24 -60 92
-9 98 32 292 113 530 47 139 47 154 4 165 -31 8 -70 -31 -105 -106 -28 -61
-49 -85 -186 -214 -211 -200 -286 -247 -329 -208 -29 26 -48 97 -60 220 -18
187 -35 248 -79 282 -23 18 -77 16 -119 -4 -88 -40 -317 -308 -429 -500 -101
-173 -83 -71 46 267 56 146 122 315 146 376 25 61 45 120 45 132 0 30 -39 48
-69 33 -27 -15 -85 -132 -141 -283 -34 -93 -50 -123 -74 -142 -17 -13 -85 -72
-151 -131 -145 -129 -239 -198 -323 -236 -76 -34 -79 -35 -87 -9 -21 67 64
355 175 593 90 191 97 211 80 232 -45 54 -64 41 -197 -142 -136 -187 -128
-181 -189 -140 -43 28 -57 32 -115 32 -61 0 -71 -3 -123 -39 -70 -48 -148
-140 -212 -252 -92 -159 -557 -788 -637 -861 -26 -24 -51 -43 -56 -43 -13 0
-41 29 -42 43 0 7 -4 35 -9 62 -9 58 18 350 50 541 47 276 98 428 198 592 357
583 484 825 568 1080 41 123 41 136 9 167 -38 39 -68 32 -125 -27 -198 -207
-428 -676 -614 -1246 -49 -153 -62 -183 -107 -249 -16 -23 -29 -48 -29 -56 0
-16 -208 -306 -446 -622 -138 -183 -229 -285 -253 -285 -13 0 -41 29 -42 43 0
7 -4 35 -9 62 -16 100 42 555 101 783 38 147 75 235 151 358 323 520 478 815
564 1070 41 121 41 137 9 169 -39 40 -71 33 -127 -27z m7 -215 c-7 -29 -320
-642 -335 -657 -23 -23 -8 56 26 140 67 165 227 476 272 527 24 27 45 22 37
-10z m805 12 c0 -15 -203 -419 -299 -595 -41 -76 -46 -82 -49 -57 -4 32 15 85
91 252 57 126 168 334 204 383 25 34 53 43 53 17z m428 -1181 c42 -29 29 -57
-92 -197 -131 -153 -257 -277 -280 -277 -9 0 -16 8 -16 19 0 36 37 139 63 172
35 48 87 137 87 152 0 17 97 111 135 130 39 21 75 21 103 1z"/>
<path d="M1783 4508 c-29 -33 -25 -23 -132 -330 -152 -438 -208 -568 -412
-958 -225 -433 -446 -795 -581 -952 -73 -84 -213 -198 -245 -198 -30 0 -48 30
-72 120 -46 173 -75 464 -68 688 8 246 81 718 170 1092 24 102 42 200 42 235
0 57 -1 60 -25 63 -21 2 -29 -4 -43 -34 -41 -86 -170 -681 -224 -1031 -23
-154 -27 -207 -26 -393 1 -333 49 -653 115 -772 92 -165 275 -74 540 272 252
330 606 986 813 1510 84 211 228 630 228 663 1 49 -45 63 -80 25z"/>
<path d="M1830 3548 c-37 -20 -48 -60 -27 -103 20 -42 53 -53 96 -30 30 15 51
48 51 80 0 44 -74 76 -120 53z"/>
<path d="M6520 3553 c-26 -10 -40 -36 -40 -74 0 -47 40 -84 80 -74 62 16 93
91 52 128 -20 19 -69 29 -92 20z"/>
</g>
</svg>
